# xmcd
#
# Track frame offsets:
#	150
#	14289
#	28626
#	43566
#	55120
#	69694
#	79452
#	91303
#	102544
#	116606
#	129356
#
# Disc length: 1908 seconds
#
# Revision: 1
# Processed by: cddbd v1.5.2PL0 Copyright (c) Steve Scherf et al.
# Submitted via: FairStars CD Ripper 1.90
#
DISCID=8f07720b
DTITLE=Big Boy Bloater And The Limits - Big Boy Bloater And The Limits
DYEAR=2011
DGENRE=Blues
TTITLE0=Ugly Way Of Thinking
TTITLE1=I Heard Those Voices Again
TTITLE2=Fumble Fisted Fool
TTITLE3=Sweet and Brown
TTITLE4=My Prayer
TTITLE5=She's Just A Friend
TTITLE6=Rocket Surgery
TTITLE7=Get Over That It's Over
TTITLE8=Rushing To Waste Time
TTITLE9=Big Fat Trap
TTITLE10=Every Path Has It's Puddle
EXTD=
EXTT0=
EXTT1=
EXTT2=
EXTT3=
EXTT4=
EXTT5=
EXTT6=
EXTT7=
EXTT8=
EXTT9=
EXTT10=
PLAYORDER=
